Kwon-taek Im: Wangsimni (1976) 
http://www.imdb.com/title/tt0153643/

Subtitles: Korean, English, Japanese

Video
ID                                       : 1
Format                                   : AVC
Format/Info                              : Advanced Video Codec
Format profile                           : Main@L3.0
Format settings, CABAC                   : Yes
Format settings, ReFrames                : 4 frames
Codec ID                                 : avc1
Codec ID/Info                            : Advanced Video Coding
Duration                                 : 1h 52mn
Bit rate mode                            : Variable
Bit rate                                 : 1 600 Kbps
Width                                    : 720 pixels
Height                                   : 308 pixels
Display aspect ratio                     : 2.35:1
Frame rate mode                          : Variable
Frame rate                               : 23.976 fps
Minimum frame rate                       : 23.974 fps
Maximum frame rate                       : 90 000.000 fps
Color space                              : YUV
Chroma subsampling                       : 4:2:0
Bit depth                                : 8 bits
Scan type                                : Progressive
Bits/(Pixel*Frame)                       : 0.301
Stream size                              : 1.26 GiB (85%)
Writing library                          : x264 core 120
 
Audio #1 (Main Audio)
ID                                       : 2
Format                                   : AAC
Format/Info                              : Advanced Audio Codec
Format profile                           : LC
Codec ID                                 : 40
Duration                                 : 1h 52mn
Bit rate mode                            : Variable
Bit rate                                 : 127 Kbps
Maximum bit rate                         : 161 Kbps
Channel(s)                               : 1 channel
Channel positions                        : Front: C
Sampling rate                            : 48.0 KHz
Compression mode                         : Lossy
Delay relative to video                  : 83ms
Stream size                              : 102 MiB (7%)
Language                                 : Korean
 
 
Audio #2 (Audio Commentary)
ID                                       : 3
Format                                   : AAC
Format/Info                              : Advanced Audio Codec
Format profile                           : LC
Codec ID                                 : 40
Duration                                 : 1h 52mn
Bit rate mode                            : Variable
Bit rate                                 : 127 Kbps
Maximum bit rate                         : 165 Kbps
Channel(s)                               : 1 channel
Channel positions                        : Front: C
Sampling rate                            : 48.0 KHz
Compression mode                         : Lossy
Delay relative to video                  : 83ms
Stream size                              : 102 MiB (7%)
Language                                 : Korean

